<?xml version="1.0" encoding="UTF-8"?>
<svg xmlns="http://www.w3.org/2000/svg" viewBox="0 0 200 120">
  <g fill="#000000">
    <rect x="20" y="25" width="10" height="10"/>
    <rect x="30" y="35" width="10" height="10"/>
    <rect x="40" y="45" width="10" height="10"/>
    <rect x="50" y="55" width="10" height="10"/>

    <rect x="40" y="20" width="10" height="10"/>
    <rect x="50" y="30" width="10" height="10"/>
    <rect x="60" y="40" width="10" height="10"/>
    <rect x="70" y="50" width="10" height="10"/>

    <rect x="55" y="60" width="35" height="20"/>
    <rect x="95" y="55" width="25" height="30"/>
    <rect x="125" y="50" width="45" height="35"/>

    <rect x="65" y="82" width="6" height="18"/>
    <rect x="52" y="92" width="6" height="18"/>
    <rect x="98" y="82" width="6" height="18"/>
    <rect x="130" y="82" width="6" height="18"/>
    <rect x="143" y="92" width="6" height="18"/>
  </g>
</svg>
