<?xml version="1.0" encoding="UTF-8"?>
<svg xmlns="http://www.w3.org/2000/svg" viewBox="0 0 128 128" shape-rendering="crispEdges">
  <g fill="#000000">
    <rect x="26" y="44" width="1" height="1"/>
    <rect x="27" y="44" width="1" height="1"/>
    <rect x="28" y="44" width="1" height="1"/>
    <rect x="29" y="44" width="1" height="1"/>
    <rect x="30" y="44" width="1" height="1"/>
    <rect x="31" y="44" width="1" height="1"/>
    <rect x="39" y="44" width="1" height="1"/>
    <rect x="40" y="44" width="1" height="1"/>
    <rect x="41" y="44" width="1" height="1"/>
    <rect x="42" y="44" width="1" height="1"/>
    <rect x="26" y="45" width="1" height="1"/>
    <rect x="27" y="45" width="1" height="1"/>
    <rect x="28" y="45" width="1" height="1"/>
    <rect x="29" y="45" width="1" height="1"/>
    <rect x="30" y="45" width="1" height="1"/>
    <rect x="31" y="45" width="1" height="1"/>
    <rect x="39" y="45" width="1" height="1"/>
    <rect x="40" y="45" width="1" height="1"/>
    <rect x="41" y="45" width="1" height="1"/>
    <rect x="42" y="45" width="1" height="1"/>
    <rect x="26" y="46" width="1" height="1"/>
    <rect x="27" y="46" width="1" height="1"/>
    <rect x="28" y="46" width="1" height="1"/>
    <rect x="29" y="46" width="1" height="1"/>
    <rect x="30" y="46" width="1" height="1"/>
    <rect x="31" y="46" width="1" height="1"/>
    <rect x="39" y="46" width="1" height="1"/>
    <rect x="40" y="46" width="1" height="1"/>
    <rect x="41" y="46" width="1" height="1"/>
    <rect x="42" y="46" width="1" height="1"/>
    <rect x="26" y="47" width="1" height="1"/>
    <rect x="27" y="47" width="1" height="1"/>
    <rect x="28" y="47" width="1" height="1"/>
    <rect x="29" y="47" width="1" height="1"/>
    <rect x="30" y="47" width="1" height="1"/>
    <rect x="31" y="47" width="1" height="1"/>
    <rect x="32" y="47" width="1" height="1"/>
    <rect x="39" y="47" width="1" height="1"/>
    <rect x="40" y="47" width="1" height="1"/>
    <rect x="41" y="47" width="1" height="1"/>
    <rect x="42" y="47" width="1" height="1"/>
    <rect x="32" y="48" width="1" height="1"/>
    <rect x="33" y="48" width="1" height="1"/>
    <rect x="34" y="48" width="1" height="1"/>
    <rect x="35" y="48" width="1" height="1"/>
    <rect x="43" y="48" width="1" height="1"/>
    <rect x="44" y="48" width="1" height="1"/>
    <rect x="45" y="48" width="1" height="1"/>
    <rect x="32" y="49" width="1" height="1"/>
    <rect x="33" y="49" width="1" height="1"/>
    <rect x="34" y="49" width="1" height="1"/>
    <rect x="35" y="49" width="1" height="1"/>
    <rect x="43" y="49" width="1" height="1"/>
    <rect x="44" y="49" width="1" height="1"/>
    <rect x="45" y="49" width="1" height="1"/>
    <rect x="32" y="50" width="1" height="1"/>
    <rect x="33" y="50" width="1" height="1"/>
    <rect x="34" y="50" width="1" height="1"/>
    <rect x="35" y="50" width="1" height="1"/>
    <rect x="43" y="50" width="1" height="1"/>
    <rect x="44" y="50" width="1" height="1"/>
    <rect x="45" y="50" width="1" height="1"/>
    <rect x="36" y="51" width="1" height="1"/>
    <rect x="37" y="51" width="1" height="1"/>
    <rect x="38" y="51" width="1" height="1"/>
    <rect x="45" y="51" width="1" height="1"/>
    <rect x="46" y="51" width="1" height="1"/>
    <rect x="47" y="51" width="1" height="1"/>
    <rect x="48" y="51" width="1" height="1"/>
    <rect x="36" y="52" width="1" height="1"/>
    <rect x="37" y="52" width="1" height="1"/>
    <rect x="38" y="52" width="1" height="1"/>
    <rect x="45" y="52" width="1" height="1"/>
    <rect x="46" y="52" width="1" height="1"/>
    <rect x="47" y="52" width="1" height="1"/>
    <rect x="48" y="52" width="1" height="1"/>
    <rect x="36" y="53" width="1" height="1"/>
    <rect x="37" y="53" width="1" height="1"/>
    <rect x="38" y="53" width="1" height="1"/>
    <rect x="45" y="53" width="1" height="1"/>
    <rect x="46" y="53" width="1" height="1"/>
    <rect x="47" y="53" width="1" height="1"/>
    <rect x="48" y="53" width="1" height="1"/>
    <rect x="37" y="54" width="1" height="1"/>
    <rect x="38" y="54" width="1" height="1"/>
    <rect x="39" y="54" width="1" height="1"/>
    <rect x="40" y="54" width="1" height="1"/>
    <rect x="41" y="54" width="1" height="1"/>
    <rect x="45" y="54" width="1" height="1"/>
    <rect x="46" y="54" width="1" height="1"/>
    <rect x="47" y="54" width="1" height="1"/>
    <rect x="48" y="54" width="1" height="1"/>
    <rect x="49" y="54" width="1" height="1"/>
    <rect x="50" y="54" width="1" height="1"/>
    <rect x="51" y="54" width="1" height="1"/>
    <rect x="39" y="55" width="1" height="1"/>
    <rect x="40" y="55" width="1" height="1"/>
    <rect x="41" y="55" width="1" height="1"/>
    <rect x="49" y="55" width="1" height="1"/>
    <rect x="50" y="55" width="1" height="1"/>
    <rect x="51" y="55" width="1" height="1"/>
    <rect x="80" y="55" width="1" height="1"/>
    <rect x="81" y="55" width="1" height="1"/>
    <rect x="82" y="55" width="1" height="1"/>
    <rect x="83" y="55" width="1" height="1"/>
    <rect x="84" y="55" width="1" height="1"/>
    <rect x="85" y="55" width="1" height="1"/>
    <rect x="86" y="55" width="1" height="1"/>
    <rect x="87" y="55" width="1" height="1"/>
    <rect x="88" y="55" width="1" height="1"/>
    <rect x="89" y="55" width="1" height="1"/>
    <rect x="90" y="55" width="1" height="1"/>
    <rect x="39" y="56" width="1" height="1"/>
    <rect x="40" y="56" width="1" height="1"/>
    <rect x="41" y="56" width="1" height="1"/>
    <rect x="49" y="56" width="1" height="1"/>
    <rect x="50" y="56" width="1" height="1"/>
    <rect x="51" y="56" width="1" height="1"/>
    <rect x="80" y="56" width="1" height="1"/>
    <rect x="81" y="56" width="1" height="1"/>
    <rect x="82" y="56" width="1" height="1"/>
    <rect x="83" y="56" width="1" height="1"/>
    <rect x="84" y="56" width="1" height="1"/>
    <rect x="85" y="56" width="1" height="1"/>
    <rect x="86" y="56" width="1" height="1"/>
    <rect x="87" y="56" width="1" height="1"/>
    <rect x="88" y="56" width="1" height="1"/>
    <rect x="89" y="56" width="1" height="1"/>
    <rect x="90" y="56" width="1" height="1"/>
    <rect x="39" y="57" width="1" height="1"/>
    <rect x="40" y="57" width="1" height="1"/>
    <rect x="41" y="57" width="1" height="1"/>
    <rect x="49" y="57" width="1" height="1"/>
    <rect x="50" y="57" width="1" height="1"/>
    <rect x="51" y="57" width="1" height="1"/>
    <rect x="80" y="57" width="1" height="1"/>
    <rect x="81" y="57" width="1" height="1"/>
    <rect x="82" y="57" width="1" height="1"/>
    <rect x="83" y="57" width="1" height="1"/>
    <rect x="84" y="57" width="1" height="1"/>
    <rect x="85" y="57" width="1" height="1"/>
    <rect x="86" y="57" width="1" height="1"/>
    <rect x="87" y="57" width="1" height="1"/>
    <rect x="88" y="57" width="1" height="1"/>
    <rect x="89" y="57" width="1" height="1"/>
    <rect x="90" y="57" width="1" height="1"/>
    <rect x="42" y="58" width="1" height="1"/>
    <rect x="43" y="58" width="1" height="1"/>
    <rect x="44" y="58" width="1" height="1"/>
    <rect x="45" y="58" width="1" height="1"/>
    <rect x="46" y="58" width="1" height="1"/>
    <rect x="47" y="58" width="1" height="1"/>
    <rect x="48" y="58" width="1" height="1"/>
    <rect x="49" y="58" width="1" height="1"/>
    <rect x="50" y="58" width="1" height="1"/>
    <rect x="51" y="58" width="1" height="1"/>
    <rect x="59" y="58" width="1" height="1"/>
    <rect x="60" y="58" width="1" height="1"/>
    <rect x="61" y="58" width="1" height="1"/>
    <rect x="62" y="58" width="1" height="1"/>
    <rect x="63" y="58" width="1" height="1"/>
    <rect x="64" y="58" width="1" height="1"/>
    <rect x="65" y="58" width="1" height="1"/>
    <rect x="66" y="58" width="1" height="1"/>
    <rect x="67" y="58" width="1" height="1"/>
    <rect x="75" y="58" width="1" height="1"/>
    <rect x="76" y="58" width="1" height="1"/>
    <rect x="77" y="58" width="1" height="1"/>
    <rect x="78" y="58" width="1" height="1"/>
    <rect x="79" y="58" width="1" height="1"/>
    <rect x="80" y="58" width="1" height="1"/>
    <rect x="81" y="58" width="1" height="1"/>
    <rect x="82" y="58" width="1" height="1"/>
    <rect x="83" y="58" width="1" height="1"/>
    <rect x="84" y="58" width="1" height="1"/>
    <rect x="85" y="58" width="1" height="1"/>
    <rect x="86" y="58" width="1" height="1"/>
    <rect x="87" y="58" width="1" height="1"/>
    <rect x="88" y="58" width="1" height="1"/>
    <rect x="89" y="58" width="1" height="1"/>
    <rect x="90" y="58" width="1" height="1"/>
    <rect x="91" y="58" width="1" height="1"/>
    <rect x="92" y="58" width="1" height="1"/>
    <rect x="93" y="58" width="1" height="1"/>
    <rect x="42" y="59" width="1" height="1"/>
    <rect x="43" y="59" width="1" height="1"/>
    <rect x="44" y="59" width="1" height="1"/>
    <rect x="45" y="59" width="1" height="1"/>
    <rect x="46" y="59" width="1" height="1"/>
    <rect x="47" y="59" width="1" height="1"/>
    <rect x="48" y="59" width="1" height="1"/>
    <rect x="49" y="59" width="1" height="1"/>
    <rect x="50" y="59" width="1" height="1"/>
    <rect x="51" y="59" width="1" height="1"/>
    <rect x="52" y="59" width="1" height="1"/>
    <rect x="59" y="59" width="1" height="1"/>
    <rect x="60" y="59" width="1" height="1"/>
    <rect x="61" y="59" width="1" height="1"/>
    <rect x="62" y="59" width="1" height="1"/>
    <rect x="63" y="59" width="1" height="1"/>
    <rect x="64" y="59" width="1" height="1"/>
    <rect x="65" y="59" width="1" height="1"/>
    <rect x="66" y="59" width="1" height="1"/>
    <rect x="67" y="59" width="1" height="1"/>
    <rect x="75" y="59" width="1" height="1"/>
    <rect x="76" y="59" width="1" height="1"/>
    <rect x="77" y="59" width="1" height="1"/>
    <rect x="78" y="59" width="1" height="1"/>
    <rect x="79" y="59" width="1" height="1"/>
    <rect x="80" y="59" width="1" height="1"/>
    <rect x="81" y="59" width="1" height="1"/>
    <rect x="82" y="59" width="1" height="1"/>
    <rect x="83" y="59" width="1" height="1"/>
    <rect x="84" y="59" width="1" height="1"/>
    <rect x="85" y="59" width="1" height="1"/>
    <rect x="86" y="59" width="1" height="1"/>
    <rect x="87" y="59" width="1" height="1"/>
    <rect x="88" y="59" width="1" height="1"/>
    <rect x="89" y="59" width="1" height="1"/>
    <rect x="90" y="59" width="1" height="1"/>
    <rect x="91" y="59" width="1" height="1"/>
    <rect x="92" y="59" width="1" height="1"/>
    <rect x="93" y="59" width="1" height="1"/>
    <rect x="42" y="60" width="1" height="1"/>
    <rect x="43" y="60" width="1" height="1"/>
    <rect x="44" y="60" width="1" height="1"/>
    <rect x="45" y="60" width="1" height="1"/>
    <rect x="46" y="60" width="1" height="1"/>
    <rect x="47" y="60" width="1" height="1"/>
    <rect x="48" y="60" width="1" height="1"/>
    <rect x="49" y="60" width="1" height="1"/>
    <rect x="50" y="60" width="1" height="1"/>
    <rect x="51" y="60" width="1" height="1"/>
    <rect x="59" y="60" width="1" height="1"/>
    <rect x="60" y="60" width="1" height="1"/>
    <rect x="61" y="60" width="1" height="1"/>
    <rect x="62" y="60" width="1" height="1"/>
    <rect x="63" y="60" width="1" height="1"/>
    <rect x="64" y="60" width="1" height="1"/>
    <rect x="65" y="60" width="1" height="1"/>
    <rect x="66" y="60" width="1" height="1"/>
    <rect x="67" y="60" width="1" height="1"/>
    <rect x="75" y="60" width="1" height="1"/>
    <rect x="76" y="60" width="1" height="1"/>
    <rect x="77" y="60" width="1" height="1"/>
    <rect x="78" y="60" width="1" height="1"/>
    <rect x="79" y="60" width="1" height="1"/>
    <rect x="80" y="60" width="1" height="1"/>
    <rect x="81" y="60" width="1" height="1"/>
    <rect x="82" y="60" width="1" height="1"/>
    <rect x="83" y="60" width="1" height="1"/>
    <rect x="84" y="60" width="1" height="1"/>
    <rect x="85" y="60" width="1" height="1"/>
    <rect x="86" y="60" width="1" height="1"/>
    <rect x="87" y="60" width="1" height="1"/>
    <rect x="88" y="60" width="1" height="1"/>
    <rect x="89" y="60" width="1" height="1"/>
    <rect x="90" y="60" width="1" height="1"/>
    <rect x="91" y="60" width="1" height="1"/>
    <rect x="92" y="60" width="1" height="1"/>
    <rect x="93" y="60" width="1" height="1"/>
    <rect x="42" y="61" width="1" height="1"/>
    <rect x="43" y="61" width="1" height="1"/>
    <rect x="44" y="61" width="1" height="1"/>
    <rect x="45" y="61" width="1" height="1"/>
    <rect x="46" y="61" width="1" height="1"/>
    <rect x="47" y="61" width="1" height="1"/>
    <rect x="48" y="61" width="1" height="1"/>
    <rect x="49" y="61" width="1" height="1"/>
    <rect x="50" y="61" width="1" height="1"/>
    <rect x="51" y="61" width="1" height="1"/>
    <rect x="59" y="61" width="1" height="1"/>
    <rect x="60" y="61" width="1" height="1"/>
    <rect x="61" y="61" width="1" height="1"/>
    <rect x="62" y="61" width="1" height="1"/>
    <rect x="63" y="61" width="1" height="1"/>
    <rect x="64" y="61" width="1" height="1"/>
    <rect x="65" y="61" width="1" height="1"/>
    <rect x="66" y="61" width="1" height="1"/>
    <rect x="67" y="61" width="1" height="1"/>
    <rect x="75" y="61" width="1" height="1"/>
    <rect x="76" y="61" width="1" height="1"/>
    <rect x="77" y="61" width="1" height="1"/>
    <rect x="78" y="61" width="1" height="1"/>
    <rect x="79" y="61" width="1" height="1"/>
    <rect x="80" y="61" width="1" height="1"/>
    <rect x="81" y="61" width="1" height="1"/>
    <rect x="82" y="61" width="1" height="1"/>
    <rect x="83" y="61" width="1" height="1"/>
    <rect x="84" y="61" width="1" height="1"/>
    <rect x="85" y="61" width="1" height="1"/>
    <rect x="86" y="61" width="1" height="1"/>
    <rect x="87" y="61" width="1" height="1"/>
    <rect x="88" y="61" width="1" height="1"/>
    <rect x="89" y="61" width="1" height="1"/>
    <rect x="90" y="61" width="1" height="1"/>
    <rect x="91" y="61" width="1" height="1"/>
    <rect x="92" y="61" width="1" height="1"/>
    <rect x="93" y="61" width="1" height="1"/>
    <rect x="39" y="62" width="1" height="1"/>
    <rect x="40" y="62" width="1" height="1"/>
    <rect x="41" y="62" width="1" height="1"/>
    <rect x="42" y="62" width="1" height="1"/>
    <rect x="43" y="62" width="1" height="1"/>
    <rect x="44" y="62" width="1" height="1"/>
    <rect x="45" y="62" width="1" height="1"/>
    <rect x="46" y="62" width="1" height="1"/>
    <rect x="47" y="62" width="1" height="1"/>
    <rect x="48" y="62" width="1" height="1"/>
    <rect x="49" y="62" width="1" height="1"/>
    <rect x="50" y="62" width="1" height="1"/>
    <rect x="51" y="62" width="1" height="1"/>
    <rect x="52" y="62" width="1" height="1"/>
    <rect x="53" y="62" width="1" height="1"/>
    <rect x="54" y="62" width="1" height="1"/>
    <rect x="55" y="62" width="1" height="1"/>
    <rect x="56" y="62" width="1" height="1"/>
    <rect x="57" y="62" width="1" height="1"/>
    <rect x="58" y="62" width="1" height="1"/>
    <rect x="59" y="62" width="1" height="1"/>
    <rect x="60" y="62" width="1" height="1"/>
    <rect x="61" y="62" width="1" height="1"/>
    <rect x="62" y="62" width="1" height="1"/>
    <rect x="63" y="62" width="1" height="1"/>
    <rect x="64" y="62" width="1" height="1"/>
    <rect x="65" y="62" width="1" height="1"/>
    <rect x="66" y="62" width="1" height="1"/>
    <rect x="67" y="62" width="1" height="1"/>
    <rect x="68" y="62" width="1" height="1"/>
    <rect x="69" y="62" width="1" height="1"/>
    <rect x="70" y="62" width="1" height="1"/>
    <rect x="71" y="62" width="1" height="1"/>
    <rect x="72" y="62" width="1" height="1"/>
    <rect x="73" y="62" width="1" height="1"/>
    <rect x="74" y="62" width="1" height="1"/>
    <rect x="75" y="62" width="1" height="1"/>
    <rect x="76" y="62" width="1" height="1"/>
    <rect x="77" y="62" width="1" height="1"/>
    <rect x="78" y="62" width="1" height="1"/>
    <rect x="79" y="62" width="1" height="1"/>
    <rect x="80" y="62" width="1" height="1"/>
    <rect x="81" y="62" width="1" height="1"/>
    <rect x="82" y="62" width="1" height="1"/>
    <rect x="83" y="62" width="1" height="1"/>
    <rect x="84" y="62" width="1" height="1"/>
    <rect x="85" y="62" width="1" height="1"/>
    <rect x="86" y="62" width="1" height="1"/>
    <rect x="87" y="62" width="1" height="1"/>
    <rect x="88" y="62" width="1" height="1"/>
    <rect x="89" y="62" width="1" height="1"/>
    <rect x="90" y="62" width="1" height="1"/>
    <rect x="91" y="62" width="1" height="1"/>
    <rect x="92" y="62" width="1" height="1"/>
    <rect x="93" y="62" width="1" height="1"/>
    <rect x="94" y="62" width="1" height="1"/>
    <rect x="95" y="62" width="1" height="1"/>
    <rect x="96" y="62" width="1" height="1"/>
    <rect x="39" y="63" width="1" height="1"/>
    <rect x="40" y="63" width="1" height="1"/>
    <rect x="41" y="63" width="1" height="1"/>
    <rect x="42" y="63" width="1" height="1"/>
    <rect x="43" y="63" width="1" height="1"/>
    <rect x="44" y="63" width="1" height="1"/>
    <rect x="45" y="63" width="1" height="1"/>
    <rect x="46" y="63" width="1" height="1"/>
    <rect x="47" y="63" width="1" height="1"/>
    <rect x="48" y="63" width="1" height="1"/>
    <rect x="49" y="63" width="1" height="1"/>
    <rect x="50" y="63" width="1" height="1"/>
    <rect x="51" y="63" width="1" height="1"/>
    <rect x="52" y="63" width="1" height="1"/>
    <rect x="53" y="63" width="1" height="1"/>
    <rect x="54" y="63" width="1" height="1"/>
    <rect x="55" y="63" width="1" height="1"/>
    <rect x="56" y="63" width="1" height="1"/>
    <rect x="57" y="63" width="1" height="1"/>
    <rect x="58" y="63" width="1" height="1"/>
    <rect x="59" y="63" width="1" height="1"/>
    <rect x="60" y="63" width="1" height="1"/>
    <rect x="61" y="63" width="1" height="1"/>
    <rect x="62" y="63" width="1" height="1"/>
    <rect x="63" y="63" width="1" height="1"/>
    <rect x="64" y="63" width="1" height="1"/>
    <rect x="65" y="63" width="1" height="1"/>
    <rect x="66" y="63" width="1" height="1"/>
    <rect x="67" y="63" width="1" height="1"/>
    <rect x="68" y="63" width="1" height="1"/>
    <rect x="69" y="63" width="1" height="1"/>
    <rect x="70" y="63" width="1" height="1"/>
    <rect x="71" y="63" width="1" height="1"/>
    <rect x="72" y="63" width="1" height="1"/>
    <rect x="73" y="63" width="1" height="1"/>
    <rect x="74" y="63" width="1" height="1"/>
    <rect x="75" y="63" width="1" height="1"/>
    <rect x="76" y="63" width="1" height="1"/>
    <rect x="77" y="63" width="1" height="1"/>
    <rect x="78" y="63" width="1" height="1"/>
    <rect x="79" y="63" width="1" height="1"/>
    <rect x="80" y="63" width="1" height="1"/>
    <rect x="81" y="63" width="1" height="1"/>
    <rect x="82" y="63" width="1" height="1"/>
    <rect x="83" y="63" width="1" height="1"/>
    <rect x="84" y="63" width="1" height="1"/>
    <rect x="85" y="63" width="1" height="1"/>
    <rect x="86" y="63" width="1" height="1"/>
    <rect x="87" y="63" width="1" height="1"/>
    <rect x="88" y="63" width="1" height="1"/>
    <rect x="89" y="63" width="1" height="1"/>
    <rect x="90" y="63" width="1" height="1"/>
    <rect x="91" y="63" width="1" height="1"/>
    <rect x="92" y="63" width="1" height="1"/>
    <rect x="93" y="63" width="1" height="1"/>
    <rect x="94" y="63" width="1" height="1"/>
    <rect x="95" y="63" width="1" height="1"/>
    <rect x="96" y="63" width="1" height="1"/>
    <rect x="39" y="64" width="1" height="1"/>
    <rect x="40" y="64" width="1" height="1"/>
    <rect x="41" y="64" width="1" height="1"/>
    <rect x="42" y="64" width="1" height="1"/>
    <rect x="43" y="64" width="1" height="1"/>
    <rect x="44" y="64" width="1" height="1"/>
    <rect x="45" y="64" width="1" height="1"/>
    <rect x="46" y="64" width="1" height="1"/>
    <rect x="47" y="64" width="1" height="1"/>
    <rect x="48" y="64" width="1" height="1"/>
    <rect x="49" y="64" width="1" height="1"/>
    <rect x="50" y="64" width="1" height="1"/>
    <rect x="51" y="64" width="1" height="1"/>
    <rect x="52" y="64" width="1" height="1"/>
    <rect x="53" y="64" width="1" height="1"/>
    <rect x="54" y="64" width="1" height="1"/>
    <rect x="55" y="64" width="1" height="1"/>
    <rect x="59" y="64" width="1" height="1"/>
    <rect x="60" y="64" width="1" height="1"/>
    <rect x="61" y="64" width="1" height="1"/>
    <rect x="62" y="64" width="1" height="1"/>
    <rect x="63" y="64" width="1" height="1"/>
    <rect x="64" y="64" width="1" height="1"/>
    <rect x="65" y="64" width="1" height="1"/>
    <rect x="66" y="64" width="1" height="1"/>
    <rect x="67" y="64" width="1" height="1"/>
    <rect x="68" y="64" width="1" height="1"/>
    <rect x="69" y="64" width="1" height="1"/>
    <rect x="70" y="64" width="1" height="1"/>
    <rect x="71" y="64" width="1" height="1"/>
    <rect x="80" y="64" width="1" height="1"/>
    <rect x="81" y="64" width="1" height="1"/>
    <rect x="82" y="64" width="1" height="1"/>
    <rect x="83" y="64" width="1" height="1"/>
    <rect x="84" y="64" width="1" height="1"/>
    <rect x="85" y="64" width="1" height="1"/>
    <rect x="86" y="64" width="1" height="1"/>
    <rect x="87" y="64" width="1" height="1"/>
    <rect x="88" y="64" width="1" height="1"/>
    <rect x="89" y="64" width="1" height="1"/>
    <rect x="90" y="64" width="1" height="1"/>
    <rect x="91" y="64" width="1" height="1"/>
    <rect x="92" y="64" width="1" height="1"/>
    <rect x="93" y="64" width="1" height="1"/>
    <rect x="94" y="64" width="1" height="1"/>
    <rect x="95" y="64" width="1" height="1"/>
    <rect x="96" y="64" width="1" height="1"/>
    <rect x="39" y="65" width="1" height="1"/>
    <rect x="40" y="65" width="1" height="1"/>
    <rect x="41" y="65" width="1" height="1"/>
    <rect x="42" y="65" width="1" height="1"/>
    <rect x="43" y="65" width="1" height="1"/>
    <rect x="44" y="65" width="1" height="1"/>
    <rect x="45" y="65" width="1" height="1"/>
    <rect x="46" y="65" width="1" height="1"/>
    <rect x="47" y="65" width="1" height="1"/>
    <rect x="48" y="65" width="1" height="1"/>
    <rect x="49" y="65" width="1" height="1"/>
    <rect x="50" y="65" width="1" height="1"/>
    <rect x="51" y="65" width="1" height="1"/>
    <rect x="52" y="65" width="1" height="1"/>
    <rect x="59" y="65" width="1" height="1"/>
    <rect x="60" y="65" width="1" height="1"/>
    <rect x="61" y="65" width="1" height="1"/>
    <rect x="62" y="65" width="1" height="1"/>
    <rect x="63" y="65" width="1" height="1"/>
    <rect x="64" y="65" width="1" height="1"/>
    <rect x="65" y="65" width="1" height="1"/>
    <rect x="66" y="65" width="1" height="1"/>
    <rect x="67" y="65" width="1" height="1"/>
    <rect x="80" y="65" width="1" height="1"/>
    <rect x="81" y="65" width="1" height="1"/>
    <rect x="82" y="65" width="1" height="1"/>
    <rect x="83" y="65" width="1" height="1"/>
    <rect x="84" y="65" width="1" height="1"/>
    <rect x="85" y="65" width="1" height="1"/>
    <rect x="86" y="65" width="1" height="1"/>
    <rect x="87" y="65" width="1" height="1"/>
    <rect x="88" y="65" width="1" height="1"/>
    <rect x="89" y="65" width="1" height="1"/>
    <rect x="90" y="65" width="1" height="1"/>
    <rect x="91" y="65" width="1" height="1"/>
    <rect x="92" y="65" width="1" height="1"/>
    <rect x="93" y="65" width="1" height="1"/>
    <rect x="94" y="65" width="1" height="1"/>
    <rect x="95" y="65" width="1" height="1"/>
    <rect x="96" y="65" width="1" height="1"/>
    <rect x="39" y="66" width="1" height="1"/>
    <rect x="40" y="66" width="1" height="1"/>
    <rect x="41" y="66" width="1" height="1"/>
    <rect x="42" y="66" width="1" height="1"/>
    <rect x="43" y="66" width="1" height="1"/>
    <rect x="44" y="66" width="1" height="1"/>
    <rect x="45" y="66" width="1" height="1"/>
    <rect x="46" y="66" width="1" height="1"/>
    <rect x="47" y="66" width="1" height="1"/>
    <rect x="48" y="66" width="1" height="1"/>
    <rect x="49" y="66" width="1" height="1"/>
    <rect x="50" y="66" width="1" height="1"/>
    <rect x="51" y="66" width="1" height="1"/>
    <rect x="59" y="66" width="1" height="1"/>
    <rect x="60" y="66" width="1" height="1"/>
    <rect x="61" y="66" width="1" height="1"/>
    <rect x="62" y="66" width="1" height="1"/>
    <rect x="63" y="66" width="1" height="1"/>
    <rect x="64" y="66" width="1" height="1"/>
    <rect x="65" y="66" width="1" height="1"/>
    <rect x="66" y="66" width="1" height="1"/>
    <rect x="67" y="66" width="1" height="1"/>
    <rect x="80" y="66" width="1" height="1"/>
    <rect x="81" y="66" width="1" height="1"/>
    <rect x="82" y="66" width="1" height="1"/>
    <rect x="83" y="66" width="1" height="1"/>
    <rect x="84" y="66" width="1" height="1"/>
    <rect x="85" y="66" width="1" height="1"/>
    <rect x="86" y="66" width="1" height="1"/>
    <rect x="87" y="66" width="1" height="1"/>
    <rect x="88" y="66" width="1" height="1"/>
    <rect x="89" y="66" width="1" height="1"/>
    <rect x="90" y="66" width="1" height="1"/>
    <rect x="91" y="66" width="1" height="1"/>
    <rect x="92" y="66" width="1" height="1"/>
    <rect x="93" y="66" width="1" height="1"/>
    <rect x="94" y="66" width="1" height="1"/>
    <rect x="95" y="66" width="1" height="1"/>
    <rect x="96" y="66" width="1" height="1"/>
    <rect x="55" y="67" width="1" height="1"/>
    <rect x="56" y="67" width="1" height="1"/>
    <rect x="57" y="67" width="1" height="1"/>
    <rect x="58" y="67" width="1" height="1"/>
    <rect x="62" y="67" width="1" height="1"/>
    <rect x="63" y="67" width="1" height="1"/>
    <rect x="64" y="67" width="1" height="1"/>
    <rect x="68" y="67" width="1" height="1"/>
    <rect x="69" y="67" width="1" height="1"/>
    <rect x="70" y="67" width="1" height="1"/>
    <rect x="71" y="67" width="1" height="1"/>
    <rect x="75" y="67" width="1" height="1"/>
    <rect x="76" y="67" width="1" height="1"/>
    <rect x="77" y="67" width="1" height="1"/>
    <rect x="55" y="68" width="1" height="1"/>
    <rect x="56" y="68" width="1" height="1"/>
    <rect x="57" y="68" width="1" height="1"/>
    <rect x="58" y="68" width="1" height="1"/>
    <rect x="62" y="68" width="1" height="1"/>
    <rect x="63" y="68" width="1" height="1"/>
    <rect x="64" y="68" width="1" height="1"/>
    <rect x="68" y="68" width="1" height="1"/>
    <rect x="69" y="68" width="1" height="1"/>
    <rect x="70" y="68" width="1" height="1"/>
    <rect x="71" y="68" width="1" height="1"/>
    <rect x="75" y="68" width="1" height="1"/>
    <rect x="76" y="68" width="1" height="1"/>
    <rect x="77" y="68" width="1" height="1"/>
    <rect x="55" y="69" width="1" height="1"/>
    <rect x="56" y="69" width="1" height="1"/>
    <rect x="57" y="69" width="1" height="1"/>
    <rect x="58" y="69" width="1" height="1"/>
    <rect x="62" y="69" width="1" height="1"/>
    <rect x="63" y="69" width="1" height="1"/>
    <rect x="64" y="69" width="1" height="1"/>
    <rect x="68" y="69" width="1" height="1"/>
    <rect x="69" y="69" width="1" height="1"/>
    <rect x="70" y="69" width="1" height="1"/>
    <rect x="71" y="69" width="1" height="1"/>
    <rect x="75" y="69" width="1" height="1"/>
    <rect x="76" y="69" width="1" height="1"/>
    <rect x="77" y="69" width="1" height="1"/>
    <rect x="49" y="70" width="1" height="1"/>
    <rect x="50" y="70" width="1" height="1"/>
    <rect x="51" y="70" width="1" height="1"/>
    <rect x="52" y="70" width="1" height="1"/>
    <rect x="53" y="70" width="1" height="1"/>
    <rect x="54" y="70" width="1" height="1"/>
    <rect x="55" y="70" width="1" height="1"/>
    <rect x="78" y="70" width="1" height="1"/>
    <rect x="79" y="70" width="1" height="1"/>
    <rect x="80" y="70" width="1" height="1"/>
    <rect x="81" y="70" width="1" height="1"/>
    <rect x="82" y="70" width="1" height="1"/>
    <rect x="83" y="70" width="1" height="1"/>
    <rect x="49" y="71" width="1" height="1"/>
    <rect x="50" y="71" width="1" height="1"/>
    <rect x="51" y="71" width="1" height="1"/>
    <rect x="52" y="71" width="1" height="1"/>
    <rect x="53" y="71" width="1" height="1"/>
    <rect x="54" y="71" width="1" height="1"/>
    <rect x="55" y="71" width="1" height="1"/>
    <rect x="60" y="71" width="1" height="1"/>
    <rect x="74" y="71" width="1" height="1"/>
    <rect x="78" y="71" width="1" height="1"/>
    <rect x="79" y="71" width="1" height="1"/>
    <rect x="80" y="71" width="1" height="1"/>
    <rect x="81" y="71" width="1" height="1"/>
    <rect x="82" y="71" width="1" height="1"/>
    <rect x="83" y="71" width="1" height="1"/>
    <rect x="49" y="72" width="1" height="1"/>
    <rect x="50" y="72" width="1" height="1"/>
    <rect x="51" y="72" width="1" height="1"/>
    <rect x="52" y="72" width="1" height="1"/>
    <rect x="59" y="72" width="1" height="1"/>
    <rect x="60" y="72" width="1" height="1"/>
    <rect x="61" y="72" width="1" height="1"/>
    <rect x="72" y="72" width="1" height="1"/>
    <rect x="73" y="72" width="1" height="1"/>
    <rect x="74" y="72" width="1" height="1"/>
    <rect x="80" y="72" width="1" height="1"/>
    <rect x="81" y="72" width="1" height="1"/>
    <rect x="82" y="72" width="1" height="1"/>
    <rect x="83" y="72" width="1" height="1"/>
    <rect x="49" y="73" width="1" height="1"/>
    <rect x="50" y="73" width="1" height="1"/>
    <rect x="51" y="73" width="1" height="1"/>
    <rect x="52" y="73" width="1" height="1"/>
    <rect x="59" y="73" width="1" height="1"/>
    <rect x="60" y="73" width="1" height="1"/>
    <rect x="61" y="73" width="1" height="1"/>
    <rect x="72" y="73" width="1" height="1"/>
    <rect x="73" y="73" width="1" height="1"/>
    <rect x="74" y="73" width="1" height="1"/>
    <rect x="80" y="73" width="1" height="1"/>
    <rect x="81" y="73" width="1" height="1"/>
    <rect x="82" y="73" width="1" height="1"/>
    <rect x="83" y="73" width="1" height="1"/>
    <rect x="46" y="74" width="1" height="1"/>
    <rect x="47" y="74" width="1" height="1"/>
    <rect x="48" y="74" width="1" height="1"/>
    <rect x="59" y="74" width="1" height="1"/>
    <rect x="60" y="74" width="1" height="1"/>
    <rect x="61" y="74" width="1" height="1"/>
    <rect x="72" y="74" width="1" height="1"/>
    <rect x="73" y="74" width="1" height="1"/>
    <rect x="74" y="74" width="1" height="1"/>
    <rect x="84" y="74" width="1" height="1"/>
    <rect x="85" y="74" width="1" height="1"/>
    <rect x="86" y="74" width="1" height="1"/>
    <rect x="46" y="75" width="1" height="1"/>
    <rect x="47" y="75" width="1" height="1"/>
    <rect x="48" y="75" width="1" height="1"/>
    <rect x="59" y="75" width="1" height="1"/>
    <rect x="60" y="75" width="1" height="1"/>
    <rect x="61" y="75" width="1" height="1"/>
    <rect x="72" y="75" width="1" height="1"/>
    <rect x="73" y="75" width="1" height="1"/>
    <rect x="74" y="75" width="1" height="1"/>
    <rect x="84" y="75" width="1" height="1"/>
    <rect x="85" y="75" width="1" height="1"/>
    <rect x="86" y="75" width="1" height="1"/>
    <rect x="46" y="76" width="1" height="1"/>
    <rect x="47" y="76" width="1" height="1"/>
    <rect x="48" y="76" width="1" height="1"/>
    <rect x="59" y="76" width="1" height="1"/>
    <rect x="60" y="76" width="1" height="1"/>
    <rect x="61" y="76" width="1" height="1"/>
    <rect x="72" y="76" width="1" height="1"/>
    <rect x="73" y="76" width="1" height="1"/>
    <rect x="74" y="76" width="1" height="1"/>
    <rect x="84" y="76" width="1" height="1"/>
    <rect x="85" y="76" width="1" height="1"/>
    <rect x="86" y="76" width="1" height="1"/>
    <rect x="46" y="77" width="1" height="1"/>
    <rect x="47" y="77" width="1" height="1"/>
    <rect x="48" y="77" width="1" height="1"/>
    <rect x="59" y="77" width="1" height="1"/>
    <rect x="72" y="77" width="1" height="1"/>
    <rect x="73" y="77" width="1" height="1"/>
    <rect x="74" y="77" width="1" height="1"/>
    <rect x="84" y="77" width="1" height="1"/>
    <rect x="85" y="77" width="1" height="1"/>
    <rect x="86" y="77" width="1" height="1"/>
    <rect x="43" y="78" width="1" height="1"/>
    <rect x="44" y="78" width="1" height="1"/>
    <rect x="45" y="78" width="1" height="1"/>
    <rect x="56" y="78" width="1" height="1"/>
    <rect x="57" y="78" width="1" height="1"/>
    <rect x="58" y="78" width="1" height="1"/>
    <rect x="75" y="78" width="1" height="1"/>
    <rect x="76" y="78" width="1" height="1"/>
    <rect x="77" y="78" width="1" height="1"/>
    <rect x="87" y="78" width="1" height="1"/>
    <rect x="88" y="78" width="1" height="1"/>
    <rect x="89" y="78" width="1" height="1"/>
    <rect x="43" y="79" width="1" height="1"/>
    <rect x="44" y="79" width="1" height="1"/>
    <rect x="45" y="79" width="1" height="1"/>
    <rect x="56" y="79" width="1" height="1"/>
    <rect x="57" y="79" width="1" height="1"/>
    <rect x="58" y="79" width="1" height="1"/>
    <rect x="75" y="79" width="1" height="1"/>
    <rect x="76" y="79" width="1" height="1"/>
    <rect x="77" y="79" width="1" height="1"/>
    <rect x="87" y="79" width="1" height="1"/>
    <rect x="88" y="79" width="1" height="1"/>
    <rect x="89" y="79" width="1" height="1"/>
    <rect x="40" y="80" width="1" height="1"/>
    <rect x="41" y="80" width="1" height="1"/>
    <rect x="42" y="80" width="1" height="1"/>
    <rect x="56" y="80" width="1" height="1"/>
    <rect x="57" y="80" width="1" height="1"/>
    <rect x="58" y="80" width="1" height="1"/>
    <rect x="75" y="80" width="1" height="1"/>
    <rect x="76" y="80" width="1" height="1"/>
    <rect x="77" y="80" width="1" height="1"/>
    <rect x="90" y="80" width="1" height="1"/>
    <rect x="91" y="80" width="1" height="1"/>
    <rect x="92" y="80" width="1" height="1"/>
    <rect x="40" y="81" width="1" height="1"/>
    <rect x="41" y="81" width="1" height="1"/>
    <rect x="42" y="81" width="1" height="1"/>
    <rect x="56" y="81" width="1" height="1"/>
    <rect x="57" y="81" width="1" height="1"/>
    <rect x="58" y="81" width="1" height="1"/>
    <rect x="75" y="81" width="1" height="1"/>
    <rect x="76" y="81" width="1" height="1"/>
    <rect x="77" y="81" width="1" height="1"/>
    <rect x="90" y="81" width="1" height="1"/>
    <rect x="91" y="81" width="1" height="1"/>
    <rect x="92" y="81" width="1" height="1"/>
    <rect x="40" y="82" width="1" height="1"/>
    <rect x="41" y="82" width="1" height="1"/>
    <rect x="42" y="82" width="1" height="1"/>
    <rect x="56" y="82" width="1" height="1"/>
    <rect x="57" y="82" width="1" height="1"/>
    <rect x="58" y="82" width="1" height="1"/>
    <rect x="75" y="82" width="1" height="1"/>
    <rect x="76" y="82" width="1" height="1"/>
    <rect x="77" y="82" width="1" height="1"/>
    <rect x="90" y="82" width="1" height="1"/>
    <rect x="91" y="82" width="1" height="1"/>
    <rect x="92" y="82" width="1" height="1"/>
  </g>
</svg>
